<mxfile host="Electron" modified="2024-05-06T13:10:19.891Z" agent="Mozilla/5.0 (Windows NT 10.0; Win64; x64) AppleWebKit/537.36 (KHTML, like Gecko) draw.io/24.2.5 Chrome/120.0.6099.109 Electron/28.1.0 Safari/537.36" etag="D2iT42ni41oMA4LVuudC" version="24.2.5" type="device">
  <diagram name="KMP" id="AjlZS5QFBOv3GIELpBsU">
    <mxGraphModel dx="848" dy="503" grid="1" gridSize="10" guides="1" tooltips="1" connect="1" arrows="1" fold="1" page="1" pageScale="1" pageWidth="827" pageHeight="1169" math="0" shadow="0">
      <root>
        <mxCell id="0" />
        <mxCell id="1" parent="0" />
        <mxCell id="bW-D60qsUh5rEk6J1FLn-1" value="a" style="whiteSpace=wrap;html=1;aspect=fixed;" vertex="1" parent="1">
          <mxGeometry x="65" y="337" width="30" height="30" as="geometry" />
        </mxCell>
        <mxCell id="bW-D60qsUh5rEk6J1FLn-2" value="b" style="whiteSpace=wrap;html=1;aspect=fixed;" vertex="1" parent="1">
          <mxGeometry x="95" y="337" width="30" height="30" as="geometry" />
        </mxCell>
        <mxCell id="bW-D60qsUh5rEk6J1FLn-3" value="a" style="whiteSpace=wrap;html=1;aspect=fixed;" vertex="1" parent="1">
          <mxGeometry x="125" y="337" width="30" height="30" as="geometry" />
        </mxCell>
        <mxCell id="bW-D60qsUh5rEk6J1FLn-4" value="c" style="whiteSpace=wrap;html=1;aspect=fixed;" vertex="1" parent="1">
          <mxGeometry x="215" y="337" width="30" height="30" as="geometry" />
        </mxCell>
        <mxCell id="bW-D60qsUh5rEk6J1FLn-5" value="b" style="whiteSpace=wrap;html=1;aspect=fixed;" vertex="1" parent="1">
          <mxGeometry x="155" y="337" width="30" height="30" as="geometry" />
        </mxCell>
        <mxCell id="bW-D60qsUh5rEk6J1FLn-6" value="a" style="whiteSpace=wrap;html=1;aspect=fixed;" vertex="1" parent="1">
          <mxGeometry x="185" y="337" width="30" height="30" as="geometry" />
        </mxCell>
        <mxCell id="bW-D60qsUh5rEk6J1FLn-7" value="&lt;font color=&quot;#ff3333&quot; style=&quot;font-size: 14px;&quot;&gt;S&lt;/font&gt;" style="text;html=1;align=center;verticalAlign=middle;resizable=0;points=[];autosize=1;strokeColor=none;fillColor=none;" vertex="1" parent="1">
          <mxGeometry x="10" y="335" width="30" height="30" as="geometry" />
        </mxCell>
        <mxCell id="bW-D60qsUh5rEk6J1FLn-8" value="a" style="whiteSpace=wrap;html=1;aspect=fixed;" vertex="1" parent="1">
          <mxGeometry x="65" y="417" width="30" height="30" as="geometry" />
        </mxCell>
        <mxCell id="bW-D60qsUh5rEk6J1FLn-9" value="c" style="whiteSpace=wrap;html=1;aspect=fixed;" vertex="1" parent="1">
          <mxGeometry x="155" y="417" width="30" height="30" as="geometry" />
        </mxCell>
        <mxCell id="bW-D60qsUh5rEk6J1FLn-10" value="b" style="whiteSpace=wrap;html=1;aspect=fixed;" vertex="1" parent="1">
          <mxGeometry x="95" y="417" width="30" height="30" as="geometry" />
        </mxCell>
        <mxCell id="bW-D60qsUh5rEk6J1FLn-11" value="a" style="whiteSpace=wrap;html=1;aspect=fixed;" vertex="1" parent="1">
          <mxGeometry x="125" y="417" width="30" height="30" as="geometry" />
        </mxCell>
        <mxCell id="bW-D60qsUh5rEk6J1FLn-13" value="&lt;font color=&quot;#ff3333&quot;&gt;&lt;b&gt;P&lt;/b&gt;&lt;/font&gt;" style="text;html=1;align=center;verticalAlign=middle;resizable=0;points=[];autosize=1;strokeColor=none;fillColor=none;" vertex="1" parent="1">
          <mxGeometry x="10" y="415" width="30" height="30" as="geometry" />
        </mxCell>
        <mxCell id="bW-D60qsUh5rEk6J1FLn-14" value="" style="endArrow=classic;html=1;rounded=0;" edge="1" parent="1">
          <mxGeometry width="50" height="50" relative="1" as="geometry">
            <mxPoint x="169.65999999999997" y="295" as="sourcePoint" />
            <mxPoint x="169.65999999999997" y="335" as="targetPoint" />
          </mxGeometry>
        </mxCell>
        <mxCell id="bW-D60qsUh5rEk6J1FLn-15" value="" style="endArrow=classic;html=1;rounded=0;" edge="1" parent="1">
          <mxGeometry width="50" height="50" relative="1" as="geometry">
            <mxPoint x="169.65999999999997" y="377" as="sourcePoint" />
            <mxPoint x="169.65999999999997" y="417" as="targetPoint" />
          </mxGeometry>
        </mxCell>
        <mxCell id="bW-D60qsUh5rEk6J1FLn-16" value="i" style="text;html=1;align=center;verticalAlign=middle;resizable=0;points=[];autosize=1;strokeColor=none;fillColor=none;" vertex="1" parent="1">
          <mxGeometry x="170" y="285" width="30" height="30" as="geometry" />
        </mxCell>
        <mxCell id="bW-D60qsUh5rEk6J1FLn-17" value="j" style="text;html=1;align=center;verticalAlign=middle;resizable=0;points=[];autosize=1;strokeColor=none;fillColor=none;" vertex="1" parent="1">
          <mxGeometry x="170" y="365" width="30" height="30" as="geometry" />
        </mxCell>
        <mxCell id="bW-D60qsUh5rEk6J1FLn-18" value="" style="shape=flexArrow;endArrow=classic;html=1;rounded=0;" edge="1" parent="1">
          <mxGeometry width="50" height="50" relative="1" as="geometry">
            <mxPoint x="268" y="387" as="sourcePoint" />
            <mxPoint x="318" y="387" as="targetPoint" />
          </mxGeometry>
        </mxCell>
        <mxCell id="bW-D60qsUh5rEk6J1FLn-19" value="暴力做法" style="text;html=1;align=center;verticalAlign=middle;resizable=0;points=[];autosize=1;strokeColor=none;fillColor=none;" vertex="1" parent="1">
          <mxGeometry x="250" y="345" width="70" height="30" as="geometry" />
        </mxCell>
        <mxCell id="bW-D60qsUh5rEk6J1FLn-20" value="a" style="whiteSpace=wrap;html=1;aspect=fixed;" vertex="1" parent="1">
          <mxGeometry x="355" y="335" width="30" height="30" as="geometry" />
        </mxCell>
        <mxCell id="bW-D60qsUh5rEk6J1FLn-21" value="b" style="whiteSpace=wrap;html=1;aspect=fixed;" vertex="1" parent="1">
          <mxGeometry x="385" y="335" width="30" height="30" as="geometry" />
        </mxCell>
        <mxCell id="bW-D60qsUh5rEk6J1FLn-22" value="a" style="whiteSpace=wrap;html=1;aspect=fixed;" vertex="1" parent="1">
          <mxGeometry x="415" y="335" width="30" height="30" as="geometry" />
        </mxCell>
        <mxCell id="bW-D60qsUh5rEk6J1FLn-23" value="c" style="whiteSpace=wrap;html=1;aspect=fixed;" vertex="1" parent="1">
          <mxGeometry x="505" y="335" width="30" height="30" as="geometry" />
        </mxCell>
        <mxCell id="bW-D60qsUh5rEk6J1FLn-24" value="b" style="whiteSpace=wrap;html=1;aspect=fixed;" vertex="1" parent="1">
          <mxGeometry x="445" y="335" width="30" height="30" as="geometry" />
        </mxCell>
        <mxCell id="bW-D60qsUh5rEk6J1FLn-25" value="a" style="whiteSpace=wrap;html=1;aspect=fixed;" vertex="1" parent="1">
          <mxGeometry x="475" y="335" width="30" height="30" as="geometry" />
        </mxCell>
        <mxCell id="bW-D60qsUh5rEk6J1FLn-26" value="a" style="whiteSpace=wrap;html=1;aspect=fixed;" vertex="1" parent="1">
          <mxGeometry x="355" y="415" width="30" height="30" as="geometry" />
        </mxCell>
        <mxCell id="bW-D60qsUh5rEk6J1FLn-27" value="c" style="whiteSpace=wrap;html=1;aspect=fixed;" vertex="1" parent="1">
          <mxGeometry x="445" y="415" width="30" height="30" as="geometry" />
        </mxCell>
        <mxCell id="bW-D60qsUh5rEk6J1FLn-28" value="b" style="whiteSpace=wrap;html=1;aspect=fixed;" vertex="1" parent="1">
          <mxGeometry x="385" y="415" width="30" height="30" as="geometry" />
        </mxCell>
        <mxCell id="bW-D60qsUh5rEk6J1FLn-29" value="a" style="whiteSpace=wrap;html=1;aspect=fixed;" vertex="1" parent="1">
          <mxGeometry x="415" y="415" width="30" height="30" as="geometry" />
        </mxCell>
        <mxCell id="bW-D60qsUh5rEk6J1FLn-30" value="" style="endArrow=classic;html=1;rounded=0;" edge="1" parent="1">
          <mxGeometry width="50" height="50" relative="1" as="geometry">
            <mxPoint x="405.34" y="295" as="sourcePoint" />
            <mxPoint x="405.34" y="335" as="targetPoint" />
          </mxGeometry>
        </mxCell>
        <mxCell id="bW-D60qsUh5rEk6J1FLn-31" value="" style="endArrow=classic;html=1;rounded=0;" edge="1" parent="1">
          <mxGeometry width="50" height="50" relative="1" as="geometry">
            <mxPoint x="375" y="377" as="sourcePoint" />
            <mxPoint x="375" y="415" as="targetPoint" />
          </mxGeometry>
        </mxCell>
        <mxCell id="bW-D60qsUh5rEk6J1FLn-32" value="i" style="text;html=1;align=center;verticalAlign=middle;resizable=0;points=[];autosize=1;strokeColor=none;fillColor=none;" vertex="1" parent="1">
          <mxGeometry x="405.68" y="285" width="30" height="30" as="geometry" />
        </mxCell>
        <mxCell id="bW-D60qsUh5rEk6J1FLn-33" value="j" style="text;html=1;align=center;verticalAlign=middle;resizable=0;points=[];autosize=1;strokeColor=none;fillColor=none;" vertex="1" parent="1">
          <mxGeometry x="375.34000000000003" y="363" width="30" height="30" as="geometry" />
        </mxCell>
        <mxCell id="bW-D60qsUh5rEk6J1FLn-34" value="" style="shape=flexArrow;endArrow=classic;html=1;rounded=0;" edge="1" parent="1">
          <mxGeometry width="50" height="50" relative="1" as="geometry">
            <mxPoint x="120" y="462.77" as="sourcePoint" />
            <mxPoint x="120" y="527" as="targetPoint" />
          </mxGeometry>
        </mxCell>
        <mxCell id="bW-D60qsUh5rEk6J1FLn-35" value="KMP" style="text;html=1;align=center;verticalAlign=middle;resizable=0;points=[];autosize=1;strokeColor=none;fillColor=none;" vertex="1" parent="1">
          <mxGeometry x="135" y="480" width="50" height="30" as="geometry" />
        </mxCell>
        <mxCell id="bW-D60qsUh5rEk6J1FLn-36" value="a" style="whiteSpace=wrap;html=1;aspect=fixed;" vertex="1" parent="1">
          <mxGeometry x="65" y="580" width="30" height="30" as="geometry" />
        </mxCell>
        <mxCell id="bW-D60qsUh5rEk6J1FLn-37" value="b" style="whiteSpace=wrap;html=1;aspect=fixed;" vertex="1" parent="1">
          <mxGeometry x="95" y="580" width="30" height="30" as="geometry" />
        </mxCell>
        <mxCell id="bW-D60qsUh5rEk6J1FLn-38" value="a" style="whiteSpace=wrap;html=1;aspect=fixed;" vertex="1" parent="1">
          <mxGeometry x="125" y="580" width="30" height="30" as="geometry" />
        </mxCell>
        <mxCell id="bW-D60qsUh5rEk6J1FLn-39" value="c" style="whiteSpace=wrap;html=1;aspect=fixed;" vertex="1" parent="1">
          <mxGeometry x="215" y="580" width="30" height="30" as="geometry" />
        </mxCell>
        <mxCell id="bW-D60qsUh5rEk6J1FLn-40" value="b" style="whiteSpace=wrap;html=1;aspect=fixed;" vertex="1" parent="1">
          <mxGeometry x="155" y="580" width="30" height="30" as="geometry" />
        </mxCell>
        <mxCell id="bW-D60qsUh5rEk6J1FLn-41" value="a" style="whiteSpace=wrap;html=1;aspect=fixed;" vertex="1" parent="1">
          <mxGeometry x="185" y="580" width="30" height="30" as="geometry" />
        </mxCell>
        <mxCell id="bW-D60qsUh5rEk6J1FLn-42" value="a" style="whiteSpace=wrap;html=1;aspect=fixed;" vertex="1" parent="1">
          <mxGeometry x="65" y="662" width="30" height="30" as="geometry" />
        </mxCell>
        <mxCell id="bW-D60qsUh5rEk6J1FLn-43" value="c" style="whiteSpace=wrap;html=1;aspect=fixed;" vertex="1" parent="1">
          <mxGeometry x="155" y="662" width="30" height="30" as="geometry" />
        </mxCell>
        <mxCell id="bW-D60qsUh5rEk6J1FLn-44" value="b" style="whiteSpace=wrap;html=1;aspect=fixed;" vertex="1" parent="1">
          <mxGeometry x="95" y="662" width="30" height="30" as="geometry" />
        </mxCell>
        <mxCell id="bW-D60qsUh5rEk6J1FLn-45" value="a" style="whiteSpace=wrap;html=1;aspect=fixed;" vertex="1" parent="1">
          <mxGeometry x="125" y="662" width="30" height="30" as="geometry" />
        </mxCell>
        <mxCell id="bW-D60qsUh5rEk6J1FLn-46" value="" style="endArrow=classic;html=1;rounded=0;" edge="1" parent="1">
          <mxGeometry width="50" height="50" relative="1" as="geometry">
            <mxPoint x="165" y="540" as="sourcePoint" />
            <mxPoint x="165" y="580" as="targetPoint" />
          </mxGeometry>
        </mxCell>
        <mxCell id="bW-D60qsUh5rEk6J1FLn-47" value="" style="endArrow=classic;html=1;rounded=0;" edge="1" parent="1">
          <mxGeometry width="50" height="50" relative="1" as="geometry">
            <mxPoint x="105" y="624" as="sourcePoint" />
            <mxPoint x="105" y="662" as="targetPoint" />
          </mxGeometry>
        </mxCell>
        <mxCell id="bW-D60qsUh5rEk6J1FLn-48" value="i" style="text;html=1;align=center;verticalAlign=middle;resizable=0;points=[];autosize=1;strokeColor=none;fillColor=none;" vertex="1" parent="1">
          <mxGeometry x="165.34000000000003" y="530" width="30" height="30" as="geometry" />
        </mxCell>
        <mxCell id="bW-D60qsUh5rEk6J1FLn-49" value="j" style="text;html=1;align=center;verticalAlign=middle;resizable=0;points=[];autosize=1;strokeColor=none;fillColor=none;" vertex="1" parent="1">
          <mxGeometry x="105.34000000000003" y="610" width="30" height="30" as="geometry" />
        </mxCell>
        <mxCell id="bW-D60qsUh5rEk6J1FLn-50" value="&lt;font style=&quot;font-size: 10px;&quot;&gt;Next array&lt;/font&gt;" style="text;html=1;align=center;verticalAlign=middle;resizable=0;points=[];autosize=1;strokeColor=none;fillColor=none;" vertex="1" parent="1">
          <mxGeometry y="690" width="70" height="30" as="geometry" />
        </mxCell>
        <mxCell id="bW-D60qsUh5rEk6J1FLn-51" value="-1" style="text;html=1;align=center;verticalAlign=middle;resizable=0;points=[];autosize=1;strokeColor=none;fillColor=none;" vertex="1" parent="1">
          <mxGeometry x="60" y="690" width="30" height="30" as="geometry" />
        </mxCell>
        <mxCell id="bW-D60qsUh5rEk6J1FLn-52" value="0" style="text;html=1;align=center;verticalAlign=middle;resizable=0;points=[];autosize=1;strokeColor=none;fillColor=none;" vertex="1" parent="1">
          <mxGeometry x="90" y="690" width="30" height="30" as="geometry" />
        </mxCell>
        <mxCell id="bW-D60qsUh5rEk6J1FLn-53" value="0" style="text;html=1;align=center;verticalAlign=middle;resizable=0;points=[];autosize=1;strokeColor=none;fillColor=none;" vertex="1" parent="1">
          <mxGeometry x="125" y="690" width="30" height="30" as="geometry" />
        </mxCell>
        <mxCell id="bW-D60qsUh5rEk6J1FLn-54" value="1" style="text;html=1;align=center;verticalAlign=middle;resizable=0;points=[];autosize=1;strokeColor=none;fillColor=none;" vertex="1" parent="1">
          <mxGeometry x="155" y="690" width="30" height="30" as="geometry" />
        </mxCell>
        <mxCell id="bW-D60qsUh5rEk6J1FLn-55" value="&lt;font color=&quot;#ff3333&quot; face=&quot;Lucida Console&quot;&gt;i不变&lt;/font&gt;&lt;div&gt;&lt;font color=&quot;#ff3333&quot; face=&quot;XQqsxluDvumf2vtW7b2o&quot;&gt;j=next[j]&lt;/font&gt;&lt;/div&gt;" style="text;html=1;align=center;verticalAlign=middle;resizable=0;points=[];autosize=1;strokeColor=none;fillColor=none;" vertex="1" parent="1">
          <mxGeometry y="585" width="70" height="40" as="geometry" />
        </mxCell>
        <mxCell id="bW-D60qsUh5rEk6J1FLn-56" value="&lt;font color=&quot;#ff3333&quot;&gt;i不断回溯&lt;/font&gt;&lt;div&gt;&lt;font color=&quot;#ff3333&quot;&gt;j = 0&lt;/font&gt;&lt;/div&gt;" style="text;html=1;align=center;verticalAlign=middle;resizable=0;points=[];autosize=1;strokeColor=none;fillColor=none;" vertex="1" parent="1">
          <mxGeometry x="310" y="280" width="70" height="40" as="geometry" />
        </mxCell>
        <mxCell id="bW-D60qsUh5rEk6J1FLn-58" value="a" style="whiteSpace=wrap;html=1;aspect=fixed;" vertex="1" parent="1">
          <mxGeometry x="330.68" y="520" width="30" height="30" as="geometry" />
        </mxCell>
        <mxCell id="bW-D60qsUh5rEk6J1FLn-59" value="b" style="whiteSpace=wrap;html=1;aspect=fixed;" vertex="1" parent="1">
          <mxGeometry x="360.68" y="520" width="30" height="30" as="geometry" />
        </mxCell>
        <mxCell id="bW-D60qsUh5rEk6J1FLn-60" value="a" style="whiteSpace=wrap;html=1;aspect=fixed;" vertex="1" parent="1">
          <mxGeometry x="390.68" y="520" width="30" height="30" as="geometry" />
        </mxCell>
        <mxCell id="bW-D60qsUh5rEk6J1FLn-61" value="b" style="whiteSpace=wrap;html=1;aspect=fixed;" vertex="1" parent="1">
          <mxGeometry x="480.68" y="520" width="30" height="30" as="geometry" />
        </mxCell>
        <mxCell id="bW-D60qsUh5rEk6J1FLn-62" value="b" style="whiteSpace=wrap;html=1;aspect=fixed;" vertex="1" parent="1">
          <mxGeometry x="420.68" y="520" width="30" height="30" as="geometry" />
        </mxCell>
        <mxCell id="bW-D60qsUh5rEk6J1FLn-63" value="a" style="whiteSpace=wrap;html=1;aspect=fixed;" vertex="1" parent="1">
          <mxGeometry x="450.68" y="520" width="30" height="30" as="geometry" />
        </mxCell>
        <mxCell id="bW-D60qsUh5rEk6J1FLn-64" value="" style="endArrow=none;dashed=1;html=1;rounded=0;" edge="1" parent="1">
          <mxGeometry width="50" height="50" relative="1" as="geometry">
            <mxPoint x="280" y="700" as="sourcePoint" />
            <mxPoint x="280" y="480" as="targetPoint" />
          </mxGeometry>
        </mxCell>
        <mxCell id="bW-D60qsUh5rEk6J1FLn-65" value="" style="endArrow=none;dashed=1;html=1;rounded=0;" edge="1" parent="1">
          <mxGeometry width="50" height="50" relative="1" as="geometry">
            <mxPoint x="280" y="480" as="sourcePoint" />
            <mxPoint x="540" y="480" as="targetPoint" />
          </mxGeometry>
        </mxCell>
        <mxCell id="bW-D60qsUh5rEk6J1FLn-66" value="Next array 的求法" style="text;html=1;align=center;verticalAlign=middle;resizable=0;points=[];autosize=1;strokeColor=none;fillColor=none;" vertex="1" parent="1">
          <mxGeometry x="270.68" y="480" width="120" height="30" as="geometry" />
        </mxCell>
        <mxCell id="bW-D60qsUh5rEk6J1FLn-67" value="Next" style="text;html=1;align=center;verticalAlign=middle;resizable=0;points=[];autosize=1;strokeColor=none;fillColor=none;" vertex="1" parent="1">
          <mxGeometry x="270.68" y="550" width="50" height="30" as="geometry" />
        </mxCell>
        <mxCell id="bW-D60qsUh5rEk6J1FLn-68" value="-1" style="text;html=1;align=center;verticalAlign=middle;resizable=0;points=[];autosize=1;strokeColor=none;fillColor=none;" vertex="1" parent="1">
          <mxGeometry x="330" y="550" width="30" height="30" as="geometry" />
        </mxCell>
        <mxCell id="bW-D60qsUh5rEk6J1FLn-69" value="0" style="text;html=1;align=center;verticalAlign=middle;resizable=0;points=[];autosize=1;strokeColor=none;fillColor=none;" vertex="1" parent="1">
          <mxGeometry x="360.68" y="550" width="30" height="30" as="geometry" />
        </mxCell>
        <mxCell id="bW-D60qsUh5rEk6J1FLn-70" value="0" style="text;html=1;align=center;verticalAlign=middle;resizable=0;points=[];autosize=1;strokeColor=none;fillColor=none;" vertex="1" parent="1">
          <mxGeometry x="390.68" y="550" width="30" height="30" as="geometry" />
        </mxCell>
        <mxCell id="bW-D60qsUh5rEk6J1FLn-71" value="1" style="text;html=1;align=center;verticalAlign=middle;resizable=0;points=[];autosize=1;strokeColor=none;fillColor=none;" vertex="1" parent="1">
          <mxGeometry x="420.68" y="550" width="30" height="30" as="geometry" />
        </mxCell>
        <mxCell id="bW-D60qsUh5rEk6J1FLn-72" value="2" style="text;html=1;align=center;verticalAlign=middle;resizable=0;points=[];autosize=1;strokeColor=none;fillColor=none;" vertex="1" parent="1">
          <mxGeometry x="450.68" y="550" width="30" height="30" as="geometry" />
        </mxCell>
        <mxCell id="bW-D60qsUh5rEk6J1FLn-73" value="？" style="text;html=1;align=center;verticalAlign=middle;resizable=0;points=[];autosize=1;strokeColor=none;fillColor=none;" vertex="1" parent="1">
          <mxGeometry x="475.68" y="550" width="40" height="30" as="geometry" />
        </mxCell>
        <mxCell id="bW-D60qsUh5rEk6J1FLn-74" value="&lt;font style=&quot;font-size: 8px;&quot; face=&quot;Lucida Console&quot;&gt;求next[5]:&lt;/font&gt;&lt;div style=&quot;font-size: 8px;&quot;&gt;&lt;font style=&quot;font-size: 8px;&quot; face=&quot;u3iK7wLZ1GxjPTUcQJvU&quot;&gt;if(P[4] == P[next[4]]&amp;nbsp;&lt;/font&gt;&lt;/div&gt;&lt;div style=&quot;font-size: 8px;&quot;&gt;&lt;font style=&quot;font-size: 8px;&quot; face=&quot;u3iK7wLZ1GxjPTUcQJvU&quot;&gt;next[5] = next[4] + 1;&lt;/font&gt;&lt;/div&gt;&lt;div style=&quot;font-size: 8px;&quot;&gt;&lt;font style=&quot;font-size: 8px;&quot; face=&quot;u3iK7wLZ1GxjPTUcQJvU&quot;&gt;else if(p[4] == P[next[next[4]]&lt;/font&gt;&lt;/div&gt;&lt;div style=&quot;font-size: 8px;&quot;&gt;&lt;font style=&quot;font-size: 8px;&quot; face=&quot;u3iK7wLZ1GxjPTUcQJvU&quot;&gt;next[5] = next[next[4]] +1&lt;/font&gt;&lt;/div&gt;&lt;div style=&quot;font-size: 8px;&quot;&gt;&lt;font style=&quot;font-size: 8px;&quot; face=&quot;u3iK7wLZ1GxjPTUcQJvU&quot;&gt;else&lt;/font&gt;&lt;span style=&quot;font-family: u3iK7wLZ1GxjPTUcQJvU; background-color: initial;&quot;&gt;…………&lt;/span&gt;&lt;/div&gt;" style="text;html=1;align=center;verticalAlign=middle;resizable=0;points=[];autosize=1;strokeColor=none;fillColor=none;" vertex="1" parent="1">
          <mxGeometry x="280.68" y="585" width="140" height="80" as="geometry" />
        </mxCell>
        <mxCell id="bW-D60qsUh5rEk6J1FLn-76" value="&lt;font face=&quot;Lucida Console&quot; style=&quot;font-size: 8px;&quot;&gt;求next[i]:&lt;/font&gt;&lt;div style=&quot;font-size: 8px;&quot;&gt;&lt;font face=&quot;zGy-uhngcRPZKJLIgJQ2&quot; style=&quot;font-size: 8px;&quot;&gt;if(P[i-1] == P[next[i-1]])&lt;/font&gt;&lt;/div&gt;&lt;div style=&quot;font-size: 8px;&quot;&gt;&lt;font face=&quot;zGy-uhngcRPZKJLIgJQ2&quot; style=&quot;font-size: 8px;&quot;&gt;next[i] = next[i-1] + 1;&lt;/font&gt;&lt;/div&gt;&lt;div style=&quot;font-size: 8px;&quot;&gt;&lt;font face=&quot;zGy-uhngcRPZKJLIgJQ2&quot; style=&quot;font-size: 8px;&quot;&gt;else if(P[i-1] == P[next[next[i-1]]&lt;/font&gt;&lt;/div&gt;&lt;div style=&quot;font-size: 8px;&quot;&gt;&lt;font face=&quot;zGy-uhngcRPZKJLIgJQ2&quot; style=&quot;font-size: 8px;&quot;&gt;next[i] = next[next[i-1]]&lt;/font&gt;&lt;/div&gt;&lt;div style=&quot;font-size: 8px;&quot;&gt;&lt;font face=&quot;zGy-uhngcRPZKJLIgJQ2&quot; style=&quot;font-size: 8px;&quot;&gt;else……&lt;/font&gt;&lt;/div&gt;" style="text;html=1;align=center;verticalAlign=middle;resizable=0;points=[];autosize=1;strokeColor=none;fillColor=none;" vertex="1" parent="1">
          <mxGeometry x="409" y="585" width="150" height="80" as="geometry" />
        </mxCell>
      </root>
    </mxGraphModel>
  </diagram>
</mxfile>
